<svg viewBox="409.92047999999994 0 587.52 575.8354755784061" preserveAspectRatio="none" xmlns:xlink="http://www.w3.org/1999/xlink" version="1.1" xmlns="http://www.w3.org/2000/svg" style="max-height: 500px" width="587.52" height="575.8354755784061"><g fill="none" mask="url(&quot;#SvgjsMask1015&quot;)"><path fill="rgba(229, 123, 7, 1)" d="M720 567.41C796.38 573.96 875.03 543.23 925.57 485.57 973.7 430.66 978.32 352.73 971.88 280 966.07 214.53 936.33 156.54 892.08 107.92 845.09 56.26 789.65 8.01 720 3.09 646.26-2.13 574.78 30.26 521.69 81.69 467.75 133.96 429.09 205.07 434.2 280 439.06 351.39 496.5 402.28 546.97 453.03 597.66 504 648.39 561.25 720 567.41"/><path fill="rgba(239, 175, 0, 1)" d="M720 410.64C754.72 413.62 790.47 399.65 813.44 373.44 835.32 348.48 837.42 313.06 834.49 280 831.85 250.24 818.33 223.88 798.22 201.78 776.86 178.3 751.66 156.37 720 154.13 686.48 151.76 653.99 166.48 629.86 189.86 605.34 213.62 587.77 245.94 590.09 280 592.3 312.45 618.41 335.58 641.35 358.65 664.39 381.82 687.45 407.84 720 410.64"/></g><defs><mask id="SvgjsMask1015"><rect fill="#ffffff" height="560" width="1440"/></mask></defs></svg>